<?xml version="1.0" standalone="no"?>
<!DOCTYPE svg PUBLIC "-//W3C//DTD SVG 20010904//EN"
 "http://www.w3.org/TR/2001/REC-SVG-20010904/DTD/svg10.dtd">
<svg version="1.0" xmlns="http://www.w3.org/2000/svg"
 width="888.000000pt" height="888.000000pt" viewBox="0 0 888.000000 888.000000"
 preserveAspectRatio="xMidYMid meet">
<metadata>
Created by potrace 1.11, written by Peter Selinger 2001-2013
</metadata>
<g transform="translate(0.000000,888.000000) scale(0.100000,-0.100000)"
fill="#000000" stroke="none">
<path d="M4388 8875 c-2 -2 -48 -6 -103 -9 -55 -3 -111 -8 -125 -10 -14 -3
-52 -7 -85 -10 -33 -3 -69 -7 -80 -10 -11 -2 -40 -7 -65 -11 -25 -3 -58 -9
-75 -12 -16 -2 -39 -6 -50 -8 -11 -2 -31 -6 -45 -9 -14 -4 -39 -9 -56 -12 -17
-2 -66 -14 -110 -25 -43 -10 -90 -22 -104 -25 -62 -13 -433 -134 -445 -145 -5
-5 -15 -9 -22 -9 -33 0 -393 -167 -553 -256 -110 -61 -235 -137 -238 -146 -2
-4 -10 -8 -17 -8 -8 0 -20 -6 -27 -13 -7 -7 -40 -30 -73 -52 -33 -21 -62 -42
-65 -45 -3 -3 -26 -21 -52 -38 -25 -18 -52 -38 -60 -45 -7 -7 -20 -18 -29 -23
-17 -9 -89 -67 -118 -94 -9 -8 -37 -32 -62 -52 -26 -20 -67 -57 -93 -82 -26
-26 -48 -46 -50 -46 -3 0 -158 -157 -246 -249 -21 -22 -96 -109 -173 -200 -11
-14 -44 -57 -74 -95 -29 -39 -57 -75 -61 -81 -75 -93 -342 -525 -342 -552 0
-3 -9 -17 -19 -31 -10 -15 -19 -30 -20 -34 -1 -4 -22 -52 -47 -105 -52 -112
-146 -336 -148 -355 -1 -3 -4 -10 -9 -14 -4 -4 -7 -17 -7 -29 0 -12 -3 -25 -7
-29 -5 -4 -8 -11 -9 -14 0 -4 -6 -20 -13 -37 -7 -16 -15 -39 -17 -50 -2 -12
-13 -48 -24 -80 -11 -33 -21 -62 -22 -65 0 -3 -2 -9 -4 -15 -5 -17 -62 -258
-68 -290 -4 -16 -9 -41 -11 -55 -3 -14 -8 -38 -10 -55 -3 -16 -8 -37 -10 -45
-2 -8 -7 -42 -11 -75 -3 -33 -8 -62 -9 -65 -4 -6 -18 -133 -31 -275 -13 -131
-7 -770 6 -770 2 0 3 -14 14 -129 4 -32 8 -68 11 -80 4 -21 6 -32 25 -151 11
-69 17 -100 24 -123 5 -15 10 -39 22 -107 2 -11 15 -63 30 -115 14 -52 27
-102 29 -110 2 -8 4 -15 5 -15 1 0 3 -7 5 -15 2 -8 13 -42 25 -75 11 -33 23
-70 25 -81 3 -12 12 -37 20 -56 8 -20 11 -38 8 -42 -4 -3 -1 -6 5 -6 7 0 11
-3 10 -7 0 -5 2 -17 6 -28 4 -11 13 -33 19 -50 7 -16 11 -33 9 -37 -1 -5 2 -8
8 -8 5 0 10 -8 10 -18 0 -10 4 -22 8 -27 5 -6 15 -26 22 -45 31 -81 213 -443
239 -473 7 -10 10 -17 5 -17 -5 0 -4 -4 2 -8 5 -4 28 -36 49 -72 52 -87 138
-214 147 -218 5 -2 8 -8 8 -13 0 -9 156 -218 202 -270 13 -15 34 -40 48 -57
122 -147 358 -384 490 -492 30 -25 57 -47 60 -50 3 -3 32 -27 65 -53 76 -60
73 -57 120 -92 22 -17 42 -32 45 -35 15 -15 160 -110 168 -110 6 0 12 -4 14
-9 3 -10 180 -118 293 -180 33 -18 65 -37 70 -41 6 -5 15 -9 20 -10 6 -1 60
-26 120 -55 61 -30 139 -66 175 -80 36 -15 79 -33 95 -40 64 -29 376 -135 396
-135 4 0 20 -5 36 -12 32 -13 37 -14 80 -22 18 -3 43 -10 57 -16 15 -5 26 -8
26 -5 0 2 18 -2 40 -10 22 -8 41 -14 43 -13 5 2 114 -17 120 -22 4 -3 39 -9
82 -14 22 -3 51 -7 65 -10 14 -3 47 -7 73 -10 27 -3 52 -8 55 -10 4 -2 45 -7
92 -11 47 -4 101 -9 120 -10 19 -2 88 -6 153 -10 l117 -5 1 32 c4 143 21 986
24 1159 1 97 5 181 9 187 3 6 3 13 -1 15 -6 4 -9 72 -3 72 1 0 3 97 5 215 4
226 11 595 20 1015 7 299 14 689 20 990 3 121 7 324 9 450 3 127 5 247 5 267
1 39 -3 36 104 82 17 8 111 48 207 89 212 91 254 108 258 107 1 0 15 6 30 14
15 8 61 29 102 47 106 44 129 54 180 76 41 19 131 57 205 88 17 7 51 22 76 33
25 12 68 30 95 41 27 10 72 30 99 42 28 13 52 24 55 24 3 0 27 11 54 23 27 12
50 22 52 22 2 0 23 9 47 19 118 55 253 111 264 111 7 0 13 4 13 10 0 5 3 9 8
8 4 -1 25 6 47 16 22 10 62 27 90 38 27 11 56 24 62 30 7 6 13 8 13 5 0 -4 22
5 49 18 27 14 56 25 65 25 9 0 16 5 16 10 0 6 6 10 13 10 11 0 205 81 324 136
17 8 33 14 36 14 3 0 36 14 74 31 37 17 84 37 103 45 19 9 44 19 55 24 11 5
106 46 210 91 303 129 537 230 575 247 19 9 37 16 40 17 5 0 176 74 240 103
19 8 75 32 123 52 49 21 88 41 89 46 1 27 -149 332 -236 477 -25 43 -46 80
-46 82 0 2 -29 47 -65 100 -36 54 -65 99 -65 101 0 2 -6 12 -14 21 -8 10 -55
72 -105 138 -49 66 -101 134 -116 150 -14 17 -40 47 -58 68 -125 148 -314 338
-463 464 -27 23 -62 54 -79 68 -35 30 -178 139 -280 212 -229 165 -504 317
-830 459 -22 9 -42 18 -45 19 -3 1 -18 7 -33 13 -16 7 -33 12 -39 12 -5 0 -22
7 -36 15 -43 23 -355 123 -437 139 -5 1 -19 5 -30 9 -11 3 -31 8 -45 11 -43 9
-71 15 -90 21 -16 5 -38 9 -110 21 -14 2 -47 8 -75 14 -27 6 -63 13 -80 15
-55 7 -117 16 -136 20 -11 2 -42 5 -70 7 -27 2 -49 5 -49 8 0 3 -30 6 -68 8
-120 4 -601 10 -604 7z"/>
<path d="M6877 4434 c-1 -1 -33 -4 -72 -8 -97 -8 -143 -14 -163 -20 -9 -3 -35
-8 -56 -12 -22 -3 -50 -10 -64 -15 -13 -5 -28 -7 -33 -3 -5 3 -9 0 -9 -5 0 -6
-10 -11 -23 -11 -12 0 -33 -7 -45 -16 -12 -8 -22 -13 -22 -10 0 24 -360 -157
-412 -207 -7 -7 -29 -24 -48 -37 -78 -54 -229 -203 -294 -290 -22 -30 -43 -57
-46 -60 -11 -11 -50 -70 -50 -75 0 -4 -13 -25 -28 -48 -16 -23 -40 -67 -54
-97 -42 -88 -70 -153 -72 -165 -1 -5 -9 -32 -18 -60 -40 -126 -49 -162 -65
-265 -9 -57 -11 -414 -3 -430 4 -8 10 -35 13 -60 8 -68 24 -136 44 -190 3 -8
7 -22 8 -30 4 -30 57 -156 100 -242 75 -149 167 -276 294 -407 44 -46 81 -81
81 -78 0 2 18 -12 40 -33 87 -82 315 -216 460 -270 36 -14 67 -25 70 -25 3 0
10 -3 16 -7 6 -4 21 -9 35 -12 13 -3 51 -13 84 -21 33 -9 74 -18 90 -20 163
-24 205 -28 305 -28 88 -1 237 10 249 18 4 1 26 6 51 9 25 3 56 9 70 12 14 3
36 7 50 10 91 19 418 154 440 183 3 3 22 15 43 26 20 11 37 23 37 27 0 5 4 8
10 8 50 0 430 378 430 429 0 6 4 11 8 11 5 0 15 12 23 28 8 15 17 29 20 32 11
10 107 207 124 255 9 28 21 59 26 70 10 23 38 121 44 156 3 13 7 35 10 49 11
50 14 70 21 137 9 82 12 263 4 263 -3 0 -5 24 -4 53 0 45 -5 79 -30 198 -34
160 -116 362 -199 492 -20 31 -37 61 -37 65 0 4 -15 23 -33 43 -17 20 -39 47
-47 60 -25 40 -222 232 -289 282 -214 160 -500 285 -716 313 -16 2 -55 8 -85
13 -30 5 -71 10 -90 10 -19 1 -70 3 -113 4 -43 2 -79 2 -80 1z"/>
</g>
</svg>
